<svg xmlns="http://www.w3.org/2000/svg" viewBox="0 0 800 540" width="800" height="540">
  <defs>
    <linearGradient id="bg3" x1="0%" y1="0%" x2="100%" y2="100%">
      <stop offset="0%" stop-color="#08141e"/>
      <stop offset="100%" stop-color="#0f2035"/>
    </linearGradient>
    <radialGradient id="glow" cx="50%" cy="50%" r="50%">
      <stop offset="0%" stop-color="#4361ee" stop-opacity="0.12"/>
      <stop offset="100%" stop-color="#4361ee" stop-opacity="0"/>
    </radialGradient>
  </defs>
  <rect width="800" height="540" fill="url(#bg3)"/>
  <rect x="150" y="100" width="500" height="340" rx="4" fill="url(#glow)"/>
  <!-- Header -->
  <rect x="24" y="20" width="752" height="50" rx="10" fill="rgba(255,255,255,0.06)"/>
  <text x="50" y="50" font-family="Arial,sans-serif" font-size="14" font-weight="bold" fill="white">Supply Chain Intelligence — Network Graph</text>
  <rect x="620" y="32" width="70" height="22" rx="4" fill="rgba(6,214,160,0.2)" stroke="#06d6a0" stroke-width="1"/>
  <text x="655" y="47" font-family="Arial,sans-serif" font-size="10" fill="#06d6a0" text-anchor="middle">Optimized</text>
  <rect x="700" y="32" width="60" height="22" rx="4" fill="#4361ee"/>
  <text x="730" y="47" font-family="Arial,sans-serif" font-size="10" fill="white" text-anchor="middle">3D View</text>
  <!-- Connection lines (supply chain network) -->
  <!-- Hub connections -->
  <line x1="400" y1="270" x2="210" y2="160" stroke="rgba(67,97,238,0.5)" stroke-width="1.5"/>
  <line x1="400" y1="270" x2="580" y2="160" stroke="rgba(67,97,238,0.5)" stroke-width="1.5"/>
  <line x1="400" y1="270" x2="160" y2="300" stroke="rgba(6,214,160,0.4)" stroke-width="1.5"/>
  <line x1="400" y1="270" x2="620" y2="320" stroke="rgba(6,214,160,0.4)" stroke-width="1.5"/>
  <line x1="400" y1="270" x2="280" y2="400" stroke="rgba(67,97,238,0.35)" stroke-width="1.5"/>
  <line x1="400" y1="270" x2="520" y2="420" stroke="rgba(245,158,11,0.35)" stroke-width="1.5"/>
  <line x1="400" y1="270" x2="400" y2="140" stroke="rgba(67,97,238,0.4)" stroke-width="1.5"/>
  <!-- Secondary connections -->
  <line x1="210" y1="160" x2="130" y2="200" stroke="rgba(67,97,238,0.25)" stroke-width="1"/>
  <line x1="210" y1="160" x2="280" y2="400" stroke="rgba(67,97,238,0.15)" stroke-width="1" stroke-dasharray="4 4"/>
  <line x1="580" y1="160" x2="640" y2="220" stroke="rgba(6,214,160,0.2)" stroke-width="1"/>
  <line x1="580" y1="160" x2="620" y2="320" stroke="rgba(6,214,160,0.15)" stroke-width="1" stroke-dasharray="4 4"/>
  <line x1="160" y1="300" x2="130" y2="200" stroke="rgba(67,97,238,0.2)" stroke-width="1"/>
  <line x1="620" y1="320" x2="640" y2="220" stroke="rgba(6,214,160,0.2)" stroke-width="1"/>
  <!-- Node glow effects -->
  <circle cx="400" cy="270" r="30" fill="rgba(67,97,238,0.15)"/>
  <circle cx="210" cy="160" r="18" fill="rgba(67,97,238,0.12)"/>
  <circle cx="580" cy="160" r="18" fill="rgba(6,214,160,0.12)"/>
  <circle cx="160" cy="300" r="16" fill="rgba(6,214,160,0.12)"/>
  <circle cx="620" cy="320" r="16" fill="rgba(6,214,160,0.12)"/>
  <!-- Hub node -->
  <circle cx="400" cy="270" r="24" fill="#0d1b2a" stroke="#4361ee" stroke-width="2.5"/>
  <text x="400" y="274" font-family="Arial,sans-serif" font-size="9" fill="#4361ee" text-anchor="middle" font-weight="bold">HUB</text>
  <!-- Supplier nodes (blue) -->
  <circle cx="210" cy="160" r="16" fill="#0d1b2a" stroke="#4361ee" stroke-width="2"/>
  <text x="210" y="164" font-family="Arial,sans-serif" font-size="8" fill="#4361ee" text-anchor="middle">MFG-1</text>
  <circle cx="400" cy="140" r="14" fill="#0d1b2a" stroke="#4361ee" stroke-width="2"/>
  <text x="400" y="144" font-family="Arial,sans-serif" font-size="8" fill="#4361ee" text-anchor="middle">SUP-A</text>
  <circle cx="130" cy="200" r="12" fill="#0d1b2a" stroke="rgba(67,97,238,0.6)" stroke-width="1.5"/>
  <text x="130" y="204" font-family="Arial,sans-serif" font-size="7" fill="rgba(67,97,238,0.8)" text-anchor="middle">RM-01</text>
  <!-- Distributor nodes (green) -->
  <circle cx="580" cy="160" r="16" fill="#0d1b2a" stroke="#06d6a0" stroke-width="2"/>
  <text x="580" y="164" font-family="Arial,sans-serif" font-size="8" fill="#06d6a0" text-anchor="middle">DIST-1</text>
  <circle cx="160" cy="300" r="14" fill="#0d1b2a" stroke="#06d6a0" stroke-width="2"/>
  <text x="160" y="304" font-family="Arial,sans-serif" font-size="8" fill="#06d6a0" text-anchor="middle">WH-EU</text>
  <circle cx="620" cy="320" r="14" fill="#0d1b2a" stroke="#06d6a0" stroke-width="2"/>
  <text x="620" y="324" font-family="Arial,sans-serif" font-size="8" fill="#06d6a0" text-anchor="middle">WH-US</text>
  <circle cx="640" cy="220" r="11" fill="#0d1b2a" stroke="rgba(6,214,160,0.6)" stroke-width="1.5"/>
  <text x="640" y="224" font-family="Arial,sans-serif" font-size="7" fill="rgba(6,214,160,0.8)" text-anchor="middle">DC-02</text>
  <!-- Warning/retail nodes -->
  <circle cx="280" cy="400" r="14" fill="#0d1b2a" stroke="#4361ee" stroke-width="2"/>
  <text x="280" y="404" font-family="Arial,sans-serif" font-size="8" fill="#4361ee" text-anchor="middle">RTL-W</text>
  <circle cx="520" cy="420" r="14" fill="#0d1b2a" stroke="#f59e0b" stroke-width="2"/>
  <text x="520" y="424" font-family="Arial,sans-serif" font-size="8" fill="#f59e0b" text-anchor="middle">RTL-E</text>
  <!-- Labels -->
  <text x="185" y="140" font-family="Arial,sans-serif" font-size="9" fill="rgba(255,255,255,0.4)">Manufacturing</text>
  <text x="570" y="142" font-family="Arial,sans-serif" font-size="9" fill="rgba(255,255,255,0.4)">Distribution</text>
  <text x="256" y="420" font-family="Arial,sans-serif" font-size="9" fill="rgba(255,255,255,0.4)">Retail West</text>
  <text x="508" y="442" font-family="Arial,sans-serif" font-size="9" fill="rgba(255,255,255,0.4)">Retail East</text>
  <!-- Right side panel -->
  <rect x="688" y="90" width="88" height="340" rx="8" fill="rgba(255,255,255,0.04)" stroke="rgba(255,255,255,0.08)" stroke-width="1"/>
  <text x="732" y="112" font-family="Arial,sans-serif" font-size="8" fill="rgba(255,255,255,0.4)" text-anchor="middle">METRICS</text>
  <text x="732" y="136" font-family="Arial,sans-serif" font-size="18" font-weight="bold" fill="white" text-anchor="middle">97%</text>
  <text x="732" y="150" font-family="Arial,sans-serif" font-size="8" fill="#06d6a0" text-anchor="middle">On-Time</text>
  <line x1="698" y1="165" x2="766" y2="165" stroke="rgba(255,255,255,0.08)" stroke-width="1"/>
  <text x="732" y="186" font-family="Arial,sans-serif" font-size="18" font-weight="bold" fill="white" text-anchor="middle">8</text>
  <text x="732" y="200" font-family="Arial,sans-serif" font-size="8" fill="rgba(255,255,255,0.4)" text-anchor="middle">Suppliers</text>
  <line x1="698" y1="215" x2="766" y2="215" stroke="rgba(255,255,255,0.08)" stroke-width="1"/>
  <text x="732" y="234" font-family="Arial,sans-serif" font-size="18" font-weight="bold" fill="#f59e0b" text-anchor="middle">2</text>
  <text x="732" y="248" font-family="Arial,sans-serif" font-size="8" fill="#f59e0b" text-anchor="middle">Alerts</text>
  <line x1="698" y1="263" x2="766" y2="263" stroke="rgba(255,255,255,0.08)" stroke-width="1"/>
  <text x="732" y="282" font-family="Arial,sans-serif" font-size="18" font-weight="bold" fill="white" text-anchor="middle">$4.2M</text>
  <text x="732" y="296" font-family="Arial,sans-serif" font-size="8" fill="rgba(255,255,255,0.4)" text-anchor="middle">Value</text>
  <!-- Legend -->
  <rect x="24" y="90" width="140" height="100" rx="8" fill="rgba(255,255,255,0.04)"/>
  <text x="40" y="113" font-family="Arial,sans-serif" font-size="10" font-weight="bold" fill="rgba(255,255,255,0.7)">Legend</text>
  <circle cx="44" cy="128" r="5" fill="none" stroke="#4361ee" stroke-width="1.5"/>
  <text x="54" y="132" font-family="Arial,sans-serif" font-size="9" fill="rgba(255,255,255,0.5)">Supplier / MFG</text>
  <circle cx="44" cy="148" r="5" fill="none" stroke="#06d6a0" stroke-width="1.5"/>
  <text x="54" y="152" font-family="Arial,sans-serif" font-size="9" fill="rgba(255,255,255,0.5)">Distributor</text>
  <circle cx="44" cy="168" r="5" fill="none" stroke="#f59e0b" stroke-width="1.5"/>
  <text x="54" y="172" font-family="Arial,sans-serif" font-size="9" fill="rgba(255,255,255,0.5)">At Risk Node</text>
  <!-- Status bar -->
  <rect x="24" y="476" width="752" height="40" rx="8" fill="rgba(255,255,255,0.04)"/>
  <circle cx="48" cy="496" r="4" fill="#06d6a0"/>
  <text x="60" y="500" font-family="Arial,sans-serif" font-size="10" fill="rgba(255,255,255,0.5)">Network healthy — 97.3% uptime</text>
  <text x="400" y="500" font-family="Arial,sans-serif" font-size="10" fill="rgba(255,255,255,0.3)" text-anchor="middle">9 nodes | 14 active routes</text>
  <circle cx="710" cy="496" r="4" fill="#f59e0b"/>
  <text x="720" y="500" font-family="Arial,sans-serif" font-size="10" fill="#f59e0b">2 disruptions flagged</text>
</svg>
