<svg xmlns="http://www.w3.org/2000/svg" viewBox="0 0 800 540" width="800" height="540">
  <defs>
    <linearGradient id="bg4" x1="0%" y1="0%" x2="100%" y2="100%">
      <stop offset="0%" stop-color="#0c1524"/>
      <stop offset="100%" stop-color="#131e38"/>
    </linearGradient>
  </defs>
  <rect width="800" height="540" fill="url(#bg4)"/>
  <g stroke="rgba(255,255,255,0.03)" stroke-width="1">
    <line x1="0" y1="135" x2="800" y2="135"/><line x1="0" y1="270" x2="800" y2="270"/>
    <line x1="0" y1="405" x2="800" y2="405"/>
  </g>
  <!-- Header -->
  <rect x="24" y="18" width="752" height="50" rx="10" fill="rgba(255,255,255,0.06)"/>
  <text x="50" y="48" font-family="Arial,sans-serif" font-size="14" font-weight="bold" fill="white">NLP Document Intelligence Pipeline</text>
  <rect x="610" y="30" width="80" height="22" rx="4" fill="#4361ee"/>
  <text x="650" y="45" font-family="Arial,sans-serif" font-size="10" fill="white" text-anchor="middle">Run Pipeline</text>
  <rect x="700" y="30" width="64" height="22" rx="4" fill="rgba(255,255,255,0.08)"/>
  <text x="732" y="45" font-family="Arial,sans-serif" font-size="10" fill="rgba(255,255,255,0.6)" text-anchor="middle">Settings</text>
  <!-- Pipeline stages -->
  <!-- Stage 1: Input -->
  <rect x="24" y="88" width="140" height="370" rx="10" fill="rgba(255,255,255,0.04)" stroke="rgba(255,255,255,0.08)" stroke-width="1"/>
  <text x="94" y="112" font-family="Arial,sans-serif" font-size="10" font-weight="bold" fill="rgba(255,255,255,0.6)" text-anchor="middle">INPUT</text>
  <!-- Document icons -->
  <rect x="42" y="122" width="100" height="60" rx="5" fill="rgba(67,97,238,0.15)" stroke="rgba(67,97,238,0.4)" stroke-width="1"/>
  <rect x="48" y="130" width="88" height="3" rx="1" fill="rgba(67,97,238,0.5)"/>
  <rect x="48" y="138" width="72" height="3" rx="1" fill="rgba(67,97,238,0.3)"/>
  <rect x="48" y="146" width="80" height="3" rx="1" fill="rgba(67,97,238,0.3)"/>
  <rect x="48" y="154" width="60" height="3" rx="1" fill="rgba(67,97,238,0.2)"/>
  <text x="94" y="172" font-family="Arial,sans-serif" font-size="8" fill="#4361ee" text-anchor="middle">Clinical Report.pdf</text>
  <rect x="42" y="196" width="100" height="60" rx="5" fill="rgba(67,97,238,0.1)" stroke="rgba(67,97,238,0.3)" stroke-width="1"/>
  <rect x="48" y="204" width="88" height="3" rx="1" fill="rgba(67,97,238,0.4)"/>
  <rect x="48" y="212" width="65" height="3" rx="1" fill="rgba(67,97,238,0.25)"/>
  <rect x="48" y="220" width="75" height="3" rx="1" fill="rgba(67,97,238,0.25)"/>
  <text x="94" y="246" font-family="Arial,sans-serif" font-size="8" fill="#4361ee" text-anchor="middle">Protocol.docx</text>
  <rect x="42" y="270" width="100" height="60" rx="5" fill="rgba(67,97,238,0.08)" stroke="rgba(67,97,238,0.2)" stroke-width="1"/>
  <text x="94" y="308" font-family="Arial,sans-serif" font-size="8" fill="rgba(67,97,238,0.6)" text-anchor="middle">Consent Form.pdf</text>
  <text x="94" y="360" font-family="Arial,sans-serif" font-size="9" fill="rgba(255,255,255,0.3)" text-anchor="middle">+14 more docs</text>
  <text x="94" y="440" font-family="Arial,sans-serif" font-size="9" fill="rgba(255,255,255,0.25)" text-anchor="middle">17 documents</text>
  <!-- Arrows between stages -->
  <text x="171" y="278" font-family="Arial,sans-serif" font-size="20" fill="rgba(67,97,238,0.6)">→</text>
  <!-- Stage 2: Processing -->
  <rect x="188" y="88" width="200" height="370" rx="10" fill="rgba(255,255,255,0.04)" stroke="rgba(67,97,238,0.2)" stroke-width="1"/>
  <text x="288" y="112" font-family="Arial,sans-serif" font-size="10" font-weight="bold" fill="rgba(255,255,255,0.6)" text-anchor="middle">NLP PROCESSING</text>
  <!-- Neural network viz -->
  <!-- Layer 1 -->
  <circle cx="220" cy="160" r="8" fill="rgba(67,97,238,0.5)" stroke="#4361ee" stroke-width="1"/>
  <circle cx="220" cy="200" r="8" fill="rgba(67,97,238,0.5)" stroke="#4361ee" stroke-width="1"/>
  <circle cx="220" cy="240" r="8" fill="rgba(67,97,238,0.5)" stroke="#4361ee" stroke-width="1"/>
  <circle cx="220" cy="280" r="8" fill="rgba(67,97,238,0.5)" stroke="#4361ee" stroke-width="1"/>
  <circle cx="220" cy="320" r="8" fill="rgba(67,97,238,0.5)" stroke="#4361ee" stroke-width="1"/>
  <!-- Layer 2 -->
  <circle cx="288" cy="175" r="10" fill="rgba(67,97,238,0.7)" stroke="#4361ee" stroke-width="1.5"/>
  <circle cx="288" cy="220" r="10" fill="rgba(67,97,238,0.7)" stroke="#4361ee" stroke-width="1.5"/>
  <circle cx="288" cy="265" r="10" fill="rgba(67,97,238,0.7)" stroke="#4361ee" stroke-width="1.5"/>
  <circle cx="288" cy="310" r="10" fill="rgba(67,97,238,0.7)" stroke="#4361ee" stroke-width="1.5"/>
  <!-- Layer 3 -->
  <circle cx="356" cy="195" r="12" fill="rgba(67,97,238,0.9)" stroke="#4361ee" stroke-width="2"/>
  <circle cx="356" cy="255" r="12" fill="rgba(67,97,238,0.9)" stroke="#4361ee" stroke-width="2"/>
  <circle cx="356" cy="315" r="12" fill="rgba(67,97,238,0.9)" stroke="#4361ee" stroke-width="2"/>
  <!-- Connections (L1→L2) -->
  <g stroke="rgba(67,97,238,0.2)" stroke-width="0.8">
    <line x1="228" y1="160" x2="278" y2="175"/><line x1="228" y1="160" x2="278" y2="220"/>
    <line x1="228" y1="200" x2="278" y2="175"/><line x1="228" y1="200" x2="278" y2="220"/>
    <line x1="228" y1="200" x2="278" y2="265"/><line x1="228" y1="240" x2="278" y2="220"/>
    <line x1="228" y1="240" x2="278" y2="265"/><line x1="228" y1="240" x2="278" y2="310"/>
    <line x1="228" y1="280" x2="278" y2="265"/><line x1="228" y1="280" x2="278" y2="310"/>
    <line x1="228" y1="320" x2="278" y2="265"/><line x1="228" y1="320" x2="278" y2="310"/>
  </g>
  <!-- Connections (L2→L3) -->
  <g stroke="rgba(67,97,238,0.25)" stroke-width="1">
    <line x1="298" y1="175" x2="344" y2="195"/><line x1="298" y1="175" x2="344" y2="255"/>
    <line x1="298" y1="220" x2="344" y2="195"/><line x1="298" y1="220" x2="344" y2="255"/>
    <line x1="298" y1="265" x2="344" y2="255"/><line x1="298" y1="265" x2="344" y2="315"/>
    <line x1="298" y1="310" x2="344" y2="255"/><line x1="298" y1="310" x2="344" y2="315"/>
  </g>
  <!-- Processing labels -->
  <text x="218" y="360" font-family="Arial,sans-serif" font-size="8" fill="rgba(255,255,255,0.35)" text-anchor="middle">Tokenize</text>
  <text x="288" y="360" font-family="Arial,sans-serif" font-size="8" fill="rgba(255,255,255,0.35)" text-anchor="middle">Embed</text>
  <text x="358" y="360" font-family="Arial,sans-serif" font-size="8" fill="rgba(255,255,255,0.35)" text-anchor="middle">Classify</text>
  <!-- Stage arrow -->
  <text x="394" y="278" font-family="Arial,sans-serif" font-size="20" fill="rgba(6,214,160,0.6)">→</text>
  <!-- Stage 3: Extraction -->
  <rect x="412" y="88" width="200" height="370" rx="10" fill="rgba(255,255,255,0.04)" stroke="rgba(6,214,160,0.2)" stroke-width="1"/>
  <text x="512" y="112" font-family="Arial,sans-serif" font-size="10" font-weight="bold" fill="rgba(255,255,255,0.6)" text-anchor="middle">ENTITY EXTRACTION</text>
  <!-- Extracted entities -->
  <rect x="430" y="124" width="164" height="22" rx="4" fill="rgba(67,97,238,0.2)" stroke="rgba(67,97,238,0.4)" stroke-width="1"/>
  <text x="440" y="139" font-family="Arial,sans-serif" font-size="9" fill="#4361ee">DRUG  Pembrolizumab</text>
  <rect x="430" y="152" width="164" height="22" rx="4" fill="rgba(6,214,160,0.15)" stroke="rgba(6,214,160,0.35)" stroke-width="1"/>
  <text x="440" y="167" font-family="Arial,sans-serif" font-size="9" fill="#06d6a0">DOSAGE  200 mg IV q3w</text>
  <rect x="430" y="180" width="164" height="22" rx="4" fill="rgba(245,158,11,0.15)" stroke="rgba(245,158,11,0.35)" stroke-width="1"/>
  <text x="440" y="195" font-family="Arial,sans-serif" font-size="9" fill="#f59e0b">AE  Grade 3 fatigue</text>
  <rect x="430" y="208" width="164" height="22" rx="4" fill="rgba(67,97,238,0.2)" stroke="rgba(67,97,238,0.4)" stroke-width="1"/>
  <text x="440" y="223" font-family="Arial,sans-serif" font-size="9" fill="#4361ee">PATIENT  ID: PT-00142</text>
  <rect x="430" y="236" width="164" height="22" rx="4" fill="rgba(6,214,160,0.15)" stroke="rgba(6,214,160,0.35)" stroke-width="1"/>
  <text x="440" y="251" font-family="Arial,sans-serif" font-size="9" fill="#06d6a0">DATE  2024-03-15</text>
  <rect x="430" y="264" width="164" height="22" rx="4" fill="rgba(239,68,68,0.15)" stroke="rgba(239,68,68,0.35)" stroke-width="1"/>
  <text x="440" y="279" font-family="Arial,sans-serif" font-size="9" fill="#ef4444">RISK  High — flagged</text>
  <text x="512" y="320" font-family="Arial,sans-serif" font-size="9" fill="rgba(255,255,255,0.3)" text-anchor="middle">847 entities extracted</text>
  <text x="512" y="338" font-family="Arial,sans-serif" font-size="9" fill="rgba(255,255,255,0.2)" text-anchor="middle">Confidence: 92.4%</text>
  <!-- Arrow -->
  <text x="618" y="278" font-family="Arial,sans-serif" font-size="20" fill="rgba(6,214,160,0.6)">→</text>
  <!-- Stage 4: Output -->
  <rect x="636" y="88" width="140" height="370" rx="10" fill="rgba(255,255,255,0.04)" stroke="rgba(6,214,160,0.2)" stroke-width="1"/>
  <text x="706" y="112" font-family="Arial,sans-serif" font-size="10" font-weight="bold" fill="rgba(255,255,255,0.6)" text-anchor="middle">OUTPUT</text>
  <!-- Output items -->
  <rect x="650" y="124" width="112" height="50" rx="6" fill="rgba(6,214,160,0.12)" stroke="rgba(6,214,160,0.3)" stroke-width="1"/>
  <text x="706" y="147" font-family="Arial,sans-serif" font-size="9" fill="#06d6a0" text-anchor="middle">Structured</text>
  <text x="706" y="162" font-family="Arial,sans-serif" font-size="9" fill="#06d6a0" text-anchor="middle">JSON/XML</text>
  <rect x="650" y="186" width="112" height="50" rx="6" fill="rgba(67,97,238,0.12)" stroke="rgba(67,97,238,0.3)" stroke-width="1"/>
  <text x="706" y="209" font-family="Arial,sans-serif" font-size="9" fill="#4361ee" text-anchor="middle">Compliance</text>
  <text x="706" y="224" font-family="Arial,sans-serif" font-size="9" fill="#4361ee" text-anchor="middle">Report PDF</text>
  <rect x="650" y="248" width="112" height="50" rx="6" fill="rgba(245,158,11,0.1)" stroke="rgba(245,158,11,0.25)" stroke-width="1"/>
  <text x="706" y="271" font-family="Arial,sans-serif" font-size="9" fill="#f59e0b" text-anchor="middle">Risk Flag</text>
  <text x="706" y="286" font-family="Arial,sans-serif" font-size="9" fill="#f59e0b" text-anchor="middle">Alerts</text>
  <rect x="650" y="310" width="112" height="50" rx="6" fill="rgba(255,255,255,0.05)" stroke="rgba(255,255,255,0.12)" stroke-width="1"/>
  <text x="706" y="333" font-family="Arial,sans-serif" font-size="9" fill="rgba(255,255,255,0.5)" text-anchor="middle">Audit</text>
  <text x="706" y="348" font-family="Arial,sans-serif" font-size="9" fill="rgba(255,255,255,0.5)" text-anchor="middle">Trail Log</text>
  <!-- Status bar -->
  <rect x="24" y="476" width="752" height="40" rx="8" fill="rgba(255,255,255,0.04)"/>
  <circle cx="48" cy="496" r="4" fill="#06d6a0"/>
  <text x="60" y="500" font-family="Arial,sans-serif" font-size="10" fill="rgba(255,255,255,0.5)">Pipeline running — 847 entities extracted from 17 documents</text>
  <text x="680" y="500" font-family="Arial,sans-serif" font-size="10" fill="rgba(255,255,255,0.3)">Latency: 1.2s avg</text>
</svg>
