<svg xmlns="http://www.w3.org/2000/svg" viewBox="0 0 800 540" width="800" height="540">
  <defs>
    <linearGradient id="bg" x1="0%" y1="0%" x2="100%" y2="100%">
      <stop offset="0%" stop-color="#0d1b2a"/>
      <stop offset="100%" stop-color="#1a2a4a"/>
    </linearGradient>
    <linearGradient id="barBlue" x1="0%" y1="0%" x2="0%" y2="100%">
      <stop offset="0%" stop-color="#4361ee"/>
      <stop offset="100%" stop-color="#2a3eb1" stop-opacity="0.7"/>
    </linearGradient>
  </defs>
  <rect width="800" height="540" fill="url(#bg)"/>
  <!-- Subtle grid -->
  <g stroke="rgba(255,255,255,0.04)" stroke-width="1">
    <line x1="0" y1="108" x2="800" y2="108"/><line x1="0" y1="216" x2="800" y2="216"/>
    <line x1="0" y1="324" x2="800" y2="324"/><line x1="0" y1="432" x2="800" y2="432"/>
    <line x1="160" y1="0" x2="160" y2="540"/><line x1="320" y1="0" x2="320" y2="540"/>
    <line x1="480" y1="0" x2="480" y2="540"/><line x1="640" y1="0" x2="640" y2="540"/>
  </g>
  <!-- Header bar -->
  <rect x="24" y="20" width="752" height="52" rx="10" fill="rgba(255,255,255,0.06)"/>
  <rect x="38" y="34" width="8" height="8" rx="2" fill="#4361ee"/>
  <rect x="52" y="34" width="8" height="8" rx="2" fill="rgba(255,255,255,0.2)"/>
  <rect x="66" y="34" width="8" height="8" rx="2" fill="rgba(255,255,255,0.1)"/>
  <text x="90" y="51" font-family="Arial,sans-serif" font-size="14" font-weight="bold" fill="white">Clinical Analytics Platform</text>
  <rect x="600" y="34" width="90" height="24" rx="5" fill="#4361ee"/>
  <text x="645" y="50" font-family="Arial,sans-serif" font-size="11" fill="white" text-anchor="middle">Export Report</text>
  <circle cx="720" cy="46" r="5" fill="#06d6a0"/>
  <text x="730" y="50" font-family="Arial,sans-serif" font-size="10" fill="#06d6a0">Live</text>
  <!-- KPI cards -->
  <rect x="24" y="90" width="170" height="82" rx="8" fill="rgba(255,255,255,0.05)" stroke="rgba(255,255,255,0.08)" stroke-width="1"/>
  <text x="40" y="113" font-family="Arial,sans-serif" font-size="9" fill="rgba(255,255,255,0.45)" letter-spacing="1">ENROLLED PATIENTS</text>
  <text x="40" y="143" font-family="Arial,sans-serif" font-size="28" font-weight="bold" fill="white">24,832</text>
  <text x="40" y="162" font-family="Arial,sans-serif" font-size="10" fill="#06d6a0">▲ 8.3% this month</text>

  <rect x="206" y="90" width="170" height="82" rx="8" fill="rgba(255,255,255,0.05)" stroke="rgba(255,255,255,0.08)" stroke-width="1"/>
  <text x="222" y="113" font-family="Arial,sans-serif" font-size="9" fill="rgba(255,255,255,0.45)" letter-spacing="1">ACTIVE TRIAL SITES</text>
  <text x="222" y="143" font-family="Arial,sans-serif" font-size="28" font-weight="bold" fill="white">142</text>
  <text x="222" y="162" font-family="Arial,sans-serif" font-size="10" fill="#06d6a0">▲ 12 new sites</text>

  <rect x="388" y="90" width="170" height="82" rx="8" fill="rgba(255,255,255,0.05)" stroke="rgba(255,255,255,0.08)" stroke-width="1"/>
  <text x="404" y="113" font-family="Arial,sans-serif" font-size="9" fill="rgba(255,255,255,0.45)" letter-spacing="1">PROTOCOL DEVIATIONS</text>
  <text x="404" y="143" font-family="Arial,sans-serif" font-size="28" font-weight="bold" fill="white">2.1%</text>
  <text x="404" y="162" font-family="Arial,sans-serif" font-size="10" fill="#f59e0b">▼ Within threshold</text>

  <rect x="570" y="90" width="206" height="82" rx="8" fill="rgba(67,97,238,0.15)" stroke="#4361ee" stroke-width="1"/>
  <text x="586" y="113" font-family="Arial,sans-serif" font-size="9" fill="rgba(255,255,255,0.45)" letter-spacing="1">FDA COMPLIANCE SCORE</text>
  <text x="586" y="143" font-family="Arial,sans-serif" font-size="28" font-weight="bold" fill="#4361ee">98.7%</text>
  <text x="586" y="162" font-family="Arial,sans-serif" font-size="10" fill="#06d6a0">✓ Audit-ready</text>

  <!-- Main chart -->
  <rect x="24" y="190" width="490" height="270" rx="8" fill="rgba(255,255,255,0.04)"/>
  <text x="44" y="218" font-family="Arial,sans-serif" font-size="13" font-weight="bold" fill="rgba(255,255,255,0.85)">Enrollment Trend by Month</text>
  <text x="44" y="234" font-family="Arial,sans-serif" font-size="10" fill="rgba(255,255,255,0.35)">Jan – Sep 2024</text>
  <!-- Y axis labels -->
  <text x="36" y="265" font-family="Arial,sans-serif" font-size="8" fill="rgba(255,255,255,0.3)" text-anchor="end">8k</text>
  <text x="36" y="305" font-family="Arial,sans-serif" font-size="8" fill="rgba(255,255,255,0.3)" text-anchor="end">6k</text>
  <text x="36" y="345" font-family="Arial,sans-serif" font-size="8" fill="rgba(255,255,255,0.3)" text-anchor="end">4k</text>
  <text x="36" y="385" font-family="Arial,sans-serif" font-size="8" fill="rgba(255,255,255,0.3)" text-anchor="end">2k</text>
  <!-- Grid lines inside chart -->
  <line x1="44" y1="262" x2="500" y2="262" stroke="rgba(255,255,255,0.06)" stroke-width="1"/>
  <line x1="44" y1="302" x2="500" y2="302" stroke="rgba(255,255,255,0.06)" stroke-width="1"/>
  <line x1="44" y1="342" x2="500" y2="342" stroke="rgba(255,255,255,0.06)" stroke-width="1"/>
  <line x1="44" y1="382" x2="500" y2="382" stroke="rgba(255,255,255,0.06)" stroke-width="1"/>
  <!-- Bar chart -->
  <rect x="56" y="360" width="34" height="80" rx="3" fill="url(#barBlue)" opacity="0.75"/>
  <rect x="104" y="330" width="34" height="110" rx="3" fill="url(#barBlue)" opacity="0.8"/>
  <rect x="152" y="305" width="34" height="135" rx="3" fill="url(#barBlue)" opacity="0.85"/>
  <rect x="200" y="285" width="34" height="155" rx="3" fill="url(#barBlue)" opacity="0.88"/>
  <rect x="248" y="265" width="34" height="175" rx="3" fill="url(#barBlue)" opacity="0.9"/>
  <rect x="296" y="255" width="34" height="185" rx="3" fill="url(#barBlue)" opacity="0.92"/>
  <rect x="344" y="242" width="34" height="198" rx="3" fill="url(#barBlue)" opacity="0.95"/>
  <rect x="392" y="230" width="34" height="210" rx="3" fill="url(#barBlue)" opacity="0.97"/>
  <rect x="440" y="215" width="34" height="225" rx="3" fill="url(#barBlue)"/>
  <!-- Trend line -->
  <polyline points="73,350 121,318 169,292 217,272 265,251 313,240 361,226 409,215 457,200"
            fill="none" stroke="#06d6a0" stroke-width="2.5" stroke-linejoin="round"/>
  <circle cx="73" cy="350" r="4" fill="#06d6a0"/><circle cx="121" cy="318" r="4" fill="#06d6a0"/>
  <circle cx="169" cy="292" r="4" fill="#06d6a0"/><circle cx="217" cy="272" r="4" fill="#06d6a0"/>
  <circle cx="265" cy="251" r="4" fill="#06d6a0"/><circle cx="313" cy="240" r="4" fill="#06d6a0"/>
  <circle cx="361" cy="226" r="4" fill="#06d6a0"/><circle cx="409" cy="215" r="4" fill="#06d6a0"/>
  <circle cx="457" cy="200" r="5" fill="#06d6a0" stroke="#0d1b2a" stroke-width="2"/>
  <!-- X axis labels -->
  <text x="73" y="452" font-family="Arial,sans-serif" font-size="9" fill="rgba(255,255,255,0.35)" text-anchor="middle">Jan</text>
  <text x="121" y="452" font-family="Arial,sans-serif" font-size="9" fill="rgba(255,255,255,0.35)" text-anchor="middle">Feb</text>
  <text x="169" y="452" font-family="Arial,sans-serif" font-size="9" fill="rgba(255,255,255,0.35)" text-anchor="middle">Mar</text>
  <text x="217" y="452" font-family="Arial,sans-serif" font-size="9" fill="rgba(255,255,255,0.35)" text-anchor="middle">Apr</text>
  <text x="265" y="452" font-family="Arial,sans-serif" font-size="9" fill="rgba(255,255,255,0.35)" text-anchor="middle">May</text>
  <text x="313" y="452" font-family="Arial,sans-serif" font-size="9" fill="rgba(255,255,255,0.35)" text-anchor="middle">Jun</text>
  <text x="361" y="452" font-family="Arial,sans-serif" font-size="9" fill="rgba(255,255,255,0.35)" text-anchor="middle">Jul</text>
  <text x="409" y="452" font-family="Arial,sans-serif" font-size="9" fill="rgba(255,255,255,0.35)" text-anchor="middle">Aug</text>
  <text x="457" y="452" font-family="Arial,sans-serif" font-size="9" fill="rgba(255,255,255,0.35)" text-anchor="middle">Sep</text>
  <!-- Right panels -->
  <rect x="526" y="190" width="250" height="130" rx="8" fill="rgba(255,255,255,0.04)"/>
  <text x="546" y="218" font-family="Arial,sans-serif" font-size="13" font-weight="bold" fill="rgba(255,255,255,0.85)">Site Performance</text>
  <text x="546" y="244" font-family="Arial,sans-serif" font-size="10" fill="rgba(255,255,255,0.45)">Site A — New York</text>
  <rect x="546" y="250" width="190" height="5" rx="2" fill="rgba(255,255,255,0.1)"/>
  <rect x="546" y="250" width="161" height="5" rx="2" fill="#4361ee"/>
  <text x="748" y="256" font-family="Arial,sans-serif" font-size="9" fill="rgba(255,255,255,0.4)">85%</text>
  <text x="546" y="272" font-family="Arial,sans-serif" font-size="10" fill="rgba(255,255,255,0.45)">Site B — London</text>
  <rect x="546" y="278" width="190" height="5" rx="2" fill="rgba(255,255,255,0.1)"/>
  <rect x="546" y="278" width="133" height="5" rx="2" fill="#06d6a0"/>
  <text x="748" y="284" font-family="Arial,sans-serif" font-size="9" fill="rgba(255,255,255,0.4)">70%</text>
  <text x="546" y="300" font-family="Arial,sans-serif" font-size="10" fill="rgba(255,255,255,0.45)">Site C — Tokyo</text>
  <rect x="546" y="306" width="190" height="5" rx="2" fill="rgba(255,255,255,0.1)"/>
  <rect x="546" y="306" width="109" height="5" rx="2" fill="#f59e0b"/>
  <text x="748" y="312" font-family="Arial,sans-serif" font-size="9" fill="rgba(255,255,255,0.4)">57%</text>

  <rect x="526" y="332" width="250" height="128" rx="8" fill="rgba(255,255,255,0.04)"/>
  <text x="546" y="360" font-family="Arial,sans-serif" font-size="13" font-weight="bold" fill="rgba(255,255,255,0.85)">Adverse Events</text>
  <!-- Donut chart -->
  <circle cx="590" cy="415" r="38" fill="none" stroke="rgba(255,255,255,0.07)" stroke-width="16"/>
  <circle cx="590" cy="415" r="38" fill="none" stroke="#4361ee" stroke-width="16"
          stroke-dasharray="178 61" stroke-dashoffset="15" transform="rotate(-90 590 415)"/>
  <circle cx="590" cy="415" r="38" fill="none" stroke="#06d6a0" stroke-width="16"
          stroke-dasharray="42 197" stroke-dashoffset="-163" transform="rotate(-90 590 415)"/>
  <text x="590" y="419" font-family="Arial,sans-serif" font-size="13" font-weight="bold" fill="white" text-anchor="middle">74%</text>
  <text x="590" y="432" font-family="Arial,sans-serif" font-size="8" fill="rgba(255,255,255,0.35)" text-anchor="middle">resolved</text>
  <text x="648" y="400" font-family="Arial,sans-serif" font-size="10" fill="#4361ee">■ Serious</text>
  <text x="648" y="416" font-family="Arial,sans-serif" font-size="10" fill="#06d6a0">■ Non-serious</text>
  <text x="648" y="432" font-family="Arial,sans-serif" font-size="10" fill="rgba(255,255,255,0.3)">■ Pending</text>
  <!-- Status bar -->
  <rect x="24" y="476" width="752" height="40" rx="8" fill="rgba(255,255,255,0.04)"/>
  <circle cx="50" cy="496" r="5" fill="#06d6a0"/>
  <text x="62" y="500" font-family="Arial,sans-serif" font-size="11" fill="rgba(255,255,255,0.55)">All systems operational</text>
  <text x="400" y="500" font-family="Arial,sans-serif" font-size="10" fill="rgba(255,255,255,0.3)" text-anchor="middle">Last sync: 2 min ago</text>
  <rect x="610" y="484" width="148" height="24" rx="4" fill="rgba(67,97,238,0.2)" stroke="#4361ee" stroke-width="0.5"/>
  <text x="684" y="500" font-family="Arial,sans-serif" font-size="10" fill="#4361ee" text-anchor="middle">FDA 21 CFR Part 11 ✓</text>
</svg>
