<svg xmlns="http://www.w3.org/2000/svg" viewBox="0 0 800 540" width="800" height="540">
  <defs>
    <linearGradient id="bg5" x1="0%" y1="0%" x2="100%" y2="100%">
      <stop offset="0%" stop-color="#080e1a"/>
      <stop offset="100%" stop-color="#0f1a2e"/>
    </linearGradient>
    <linearGradient id="lineGrad" x1="0%" y1="0%" x2="100%" y2="0%">
      <stop offset="0%" stop-color="#4361ee"/>
      <stop offset="100%" stop-color="#06d6a0"/>
    </linearGradient>
    <linearGradient id="areaGrad" x1="0%" y1="0%" x2="0%" y2="100%">
      <stop offset="0%" stop-color="#4361ee" stop-opacity="0.3"/>
      <stop offset="100%" stop-color="#4361ee" stop-opacity="0"/>
    </linearGradient>
  </defs>
  <rect width="800" height="540" fill="url(#bg5)"/>
  <g stroke="rgba(255,255,255,0.03)" stroke-width="1">
    <line x1="0" y1="108" x2="800" y2="108"/><line x1="0" y1="216" x2="800" y2="216"/>
    <line x1="0" y1="324" x2="800" y2="324"/><line x1="0" y1="432" x2="800" y2="432"/>
  </g>
  <!-- Header -->
  <rect x="24" y="18" width="752" height="50" rx="10" fill="rgba(255,255,255,0.06)"/>
  <text x="50" y="48" font-family="Arial,sans-serif" font-size="14" font-weight="bold" fill="white">Financial Risk Analytics Dashboard</text>
  <rect x="578" y="30" width="90" height="22" rx="4" fill="rgba(239,68,68,0.2)" stroke="rgba(239,68,68,0.4)" stroke-width="1"/>
  <text x="623" y="45" font-family="Arial,sans-serif" font-size="10" fill="#ef4444" text-anchor="middle">⚠ 2 Alerts</text>
  <rect x="678" y="30" width="78" height="22" rx="4" fill="#4361ee"/>
  <text x="717" y="45" font-family="Arial,sans-serif" font-size="10" fill="white" text-anchor="middle">Full Report</text>
  <!-- KPI row -->
  <rect x="24" y="88" width="145" height="80" rx="8" fill="rgba(255,255,255,0.04)" stroke="rgba(255,255,255,0.07)" stroke-width="1"/>
  <text x="40" y="110" font-family="Arial,sans-serif" font-size="9" fill="rgba(255,255,255,0.4)" letter-spacing="1">PORTFOLIO VaR</text>
  <text x="40" y="140" font-family="Arial,sans-serif" font-size="26" font-weight="bold" fill="white">$2.4M</text>
  <text x="40" y="158" font-family="Arial,sans-serif" font-size="9" fill="#ef4444">▲ 12% vs last week</text>

  <rect x="181" y="88" width="145" height="80" rx="8" fill="rgba(255,255,255,0.04)" stroke="rgba(255,255,255,0.07)" stroke-width="1"/>
  <text x="197" y="110" font-family="Arial,sans-serif" font-size="9" fill="rgba(255,255,255,0.4)" letter-spacing="1">SHARPE RATIO</text>
  <text x="197" y="140" font-family="Arial,sans-serif" font-size="26" font-weight="bold" fill="white">1.84</text>
  <text x="197" y="158" font-family="Arial,sans-serif" font-size="9" fill="#06d6a0">▲ Outperforming</text>

  <rect x="338" y="88" width="145" height="80" rx="8" fill="rgba(255,255,255,0.04)" stroke="rgba(255,255,255,0.07)" stroke-width="1"/>
  <text x="354" y="110" font-family="Arial,sans-serif" font-size="9" fill="rgba(255,255,255,0.4)" letter-spacing="1">MAX DRAWDOWN</text>
  <text x="354" y="140" font-family="Arial,sans-serif" font-size="26" font-weight="bold" fill="white">-8.2%</text>
  <text x="354" y="158" font-family="Arial,sans-serif" font-size="9" fill="#f59e0b">Within limits</text>

  <rect x="495" y="88" width="145" height="80" rx="8" fill="rgba(67,97,238,0.12)" stroke="#4361ee" stroke-width="1"/>
  <text x="511" y="110" font-family="Arial,sans-serif" font-size="9" fill="rgba(255,255,255,0.4)" letter-spacing="1">COMPLIANCE</text>
  <text x="511" y="140" font-family="Arial,sans-serif" font-size="26" font-weight="bold" fill="#4361ee">99.1%</text>
  <text x="511" y="158" font-family="Arial,sans-serif" font-size="9" fill="#06d6a0">SOX compliant ✓</text>

  <rect x="652" y="88" width="124" height="80" rx="8" fill="rgba(255,255,255,0.04)" stroke="rgba(255,255,255,0.07)" stroke-width="1"/>
  <text x="668" y="110" font-family="Arial,sans-serif" font-size="9" fill="rgba(255,255,255,0.4)" letter-spacing="1">BETA</text>
  <text x="668" y="140" font-family="Arial,sans-serif" font-size="26" font-weight="bold" fill="white">0.73</text>
  <text x="668" y="158" font-family="Arial,sans-serif" font-size="9" fill="#06d6a0">Low market risk</text>

  <!-- Main chart -->
  <rect x="24" y="186" width="480" height="260" rx="8" fill="rgba(255,255,255,0.03)"/>
  <text x="44" y="214" font-family="Arial,sans-serif" font-size="12" font-weight="bold" fill="rgba(255,255,255,0.85)">Risk Score vs. Return (12-month rolling)</text>
  <!-- Y axis -->
  <text x="36" y="250" font-family="Arial,sans-serif" font-size="8" fill="rgba(255,255,255,0.3)" text-anchor="end">High</text>
  <text x="36" y="320" font-family="Arial,sans-serif" font-size="8" fill="rgba(255,255,255,0.3)" text-anchor="end">Med</text>
  <text x="36" y="390" font-family="Arial,sans-serif" font-size="8" fill="rgba(255,255,255,0.3)" text-anchor="end">Low</text>
  <!-- Chart grid -->
  <line x1="44" y1="248" x2="490" y2="248" stroke="rgba(255,255,255,0.05)" stroke-width="1"/>
  <line x1="44" y1="318" x2="490" y2="318" stroke="rgba(255,255,255,0.05)" stroke-width="1"/>
  <line x1="44" y1="388" x2="490" y2="388" stroke="rgba(255,255,255,0.05)" stroke-width="1"/>
  <!-- Area under line -->
  <path d="M 60,370 L 105,350 L 150,320 L 195,340 L 240,290 L 285,310 L 330,260 L 375,280 L 420,240 L 460,250 L 460,410 L 60,410 Z"
        fill="url(#areaGrad)"/>
  <!-- Risk line (blue) -->
  <polyline points="60,370 105,350 150,320 195,340 240,290 285,310 330,260 375,280 420,240 460,250"
            fill="none" stroke="url(#lineGrad)" stroke-width="2.5" stroke-linejoin="round"/>
  <!-- Return line (teal) -->
  <polyline points="60,390 105,385 150,380 195,360 240,340 285,330 330,300 375,310 420,280 460,270"
            fill="none" stroke="#06d6a0" stroke-width="1.5" stroke-dasharray="6 3" stroke-linejoin="round"/>
  <!-- Data points -->
  <circle cx="420" cy="240" r="5" fill="#4361ee" stroke="#0d1b2a" stroke-width="2"/>
  <circle cx="460" cy="250" r="5" fill="#4361ee" stroke="#0d1b2a" stroke-width="2"/>
  <!-- Anomaly marker -->
  <circle cx="195" cy="340" r="7" fill="none" stroke="#ef4444" stroke-width="1.5"/>
  <text x="195" y="334" font-family="Arial,sans-serif" font-size="7" fill="#ef4444" text-anchor="middle">!</text>
  <!-- X labels -->
  <text x="60" y="430" font-family="Arial,sans-serif" font-size="8" fill="rgba(255,255,255,0.3)" text-anchor="middle">Q1</text>
  <text x="150" y="430" font-family="Arial,sans-serif" font-size="8" fill="rgba(255,255,255,0.3)" text-anchor="middle">Q2</text>
  <text x="240" y="430" font-family="Arial,sans-serif" font-size="8" fill="rgba(255,255,255,0.3)" text-anchor="middle">Q3</text>
  <text x="330" y="430" font-family="Arial,sans-serif" font-size="8" fill="rgba(255,255,255,0.3)" text-anchor="middle">Q4</text>
  <text x="420" y="430" font-family="Arial,sans-serif" font-size="8" fill="rgba(255,255,255,0.3)" text-anchor="middle">Q1 '24</text>
  <!-- Legend -->
  <line x1="44" y1="452" x2="64" y2="452" stroke="#4361ee" stroke-width="2"/>
  <text x="70" y="456" font-family="Arial,sans-serif" font-size="9" fill="rgba(255,255,255,0.5)">Risk Score</text>
  <line x1="140" y1="452" x2="160" y2="452" stroke="#06d6a0" stroke-width="1.5" stroke-dasharray="5 3"/>
  <text x="166" y="456" font-family="Arial,sans-serif" font-size="9" fill="rgba(255,255,255,0.5)">Return</text>
  <!-- Right panels -->
  <rect x="516" y="186" width="260" height="120" rx="8" fill="rgba(255,255,255,0.04)"/>
  <text x="536" y="212" font-family="Arial,sans-serif" font-size="12" font-weight="bold" fill="rgba(255,255,255,0.85)">Risk Heatmap</text>
  <!-- Heatmap grid -->
  <g font-family="Arial,sans-serif" font-size="7" fill="rgba(255,255,255,0.3)">
    <text x="536" y="228" text-anchor="middle">Eq</text>
    <text x="564" y="228">FI</text><text x="592" y="228">Deriv</text>
    <text x="628" y="228">FX</text><text x="660" y="228">Crd</text>
  </g>
  <!-- Heatmap cells -->
  <rect x="548" y="232" width="22" height="18" rx="2" fill="rgba(67,97,238,0.7)"/>
  <rect x="574" y="232" width="22" height="18" rx="2" fill="rgba(67,97,238,0.4)"/>
  <rect x="600" y="232" width="22" height="18" rx="2" fill="rgba(239,68,68,0.7)"/>
  <rect x="626" y="232" width="22" height="18" rx="2" fill="rgba(245,158,11,0.5)"/>
  <rect x="652" y="232" width="22" height="18" rx="2" fill="rgba(67,97,238,0.3)"/>
  <rect x="548" y="254" width="22" height="18" rx="2" fill="rgba(6,214,160,0.4)"/>
  <rect x="574" y="254" width="22" height="18" rx="2" fill="rgba(67,97,238,0.6)"/>
  <rect x="600" y="254" width="22" height="18" rx="2" fill="rgba(245,158,11,0.3)"/>
  <rect x="626" y="254" width="22" height="18" rx="2" fill="rgba(6,214,160,0.6)"/>
  <rect x="652" y="254" width="22" height="18" rx="2" fill="rgba(239,68,68,0.5)"/>
  <rect x="548" y="276" width="22" height="18" rx="2" fill="rgba(245,158,11,0.6)"/>
  <rect x="574" y="276" width="22" height="18" rx="2" fill="rgba(6,214,160,0.3)"/>
  <rect x="600" y="276" width="22" height="18" rx="2" fill="rgba(67,97,238,0.5)"/>
  <rect x="626" y="276" width="22" height="18" rx="2" fill="rgba(239,68,68,0.4)"/>
  <rect x="652" y="276" width="22" height="18" rx="2" fill="rgba(6,214,160,0.5)"/>
  <!-- Heatmap row labels -->
  <text x="534" y="244" font-family="Arial,sans-serif" font-size="7" fill="rgba(255,255,255,0.3)" text-anchor="end">Mkt</text>
  <text x="534" y="266" font-family="Arial,sans-serif" font-size="7" fill="rgba(255,255,255,0.3)" text-anchor="end">Liq</text>
  <text x="534" y="288" font-family="Arial,sans-serif" font-size="7" fill="rgba(255,255,255,0.3)" text-anchor="end">Crd</text>
  <!-- Alert panel -->
  <rect x="516" y="316" width="260" height="130" rx="8" fill="rgba(255,255,255,0.04)"/>
  <text x="536" y="342" font-family="Arial,sans-serif" font-size="12" font-weight="bold" fill="rgba(255,255,255,0.85)">Active Alerts</text>
  <rect x="530" y="350" width="232" height="38" rx="6" fill="rgba(239,68,68,0.1)" stroke="rgba(239,68,68,0.3)" stroke-width="1"/>
  <circle cx="546" cy="369" r="5" fill="#ef4444"/>
  <text x="558" y="366" font-family="Arial,sans-serif" font-size="9" font-weight="bold" fill="#ef4444">HIGH: Derivatives VaR breach</text>
  <text x="558" y="380" font-family="Arial,sans-serif" font-size="8" fill="rgba(255,255,255,0.4)">Limit exceeded by $340K — Immediate review</text>
  <rect x="530" y="394" width="232" height="38" rx="6" fill="rgba(245,158,11,0.1)" stroke="rgba(245,158,11,0.3)" stroke-width="1"/>
  <circle cx="546" cy="413" r="5" fill="#f59e0b"/>
  <text x="558" y="410" font-family="Arial,sans-serif" font-size="9" font-weight="bold" fill="#f59e0b">MED: FX exposure nearing limit</text>
  <text x="558" y="424" font-family="Arial,sans-serif" font-size="8" fill="rgba(255,255,255,0.4)">87% of threshold — Monitor closely</text>
  <!-- Status bar -->
  <rect x="24" y="462" width="752" height="40" rx="8" fill="rgba(255,255,255,0.04)"/>
  <circle cx="48" cy="482" r="4" fill="#06d6a0"/>
  <text x="60" y="486" font-family="Arial,sans-serif" font-size="10" fill="rgba(255,255,255,0.5)">Market data streaming — SOX reporting active</text>
  <text x="620" y="486" font-family="Arial,sans-serif" font-size="10" fill="rgba(255,255,255,0.3)">Updated: Real-time</text>
</svg>
