<svg xmlns="http://www.w3.org/2000/svg" viewBox="0 0 800 540" width="800" height="540">
  <defs>
    <linearGradient id="bg7" x1="0%" y1="0%" x2="100%" y2="100%">
      <stop offset="0%" stop-color="#080f1c"/>
      <stop offset="100%" stop-color="#0e1b2e"/>
    </linearGradient>
  </defs>
  <rect width="800" height="540" fill="url(#bg7)"/>
  <!-- Header -->
  <rect x="24" y="18" width="752" height="50" rx="10" fill="rgba(255,255,255,0.06)"/>
  <text x="50" y="48" font-family="Arial,sans-serif" font-size="14" font-weight="bold" fill="white">Pharmacovigilance Suite — Safety Signal Detection</text>
  <rect x="572" y="30" width="100" height="22" rx="4" fill="rgba(239,68,68,0.2)" stroke="rgba(239,68,68,0.4)" stroke-width="1"/>
  <text x="622" y="45" font-family="Arial,sans-serif" font-size="10" fill="#ef4444" text-anchor="middle">⚠ 3 Signals</text>
  <rect x="682" y="30" width="74" height="22" rx="4" fill="#4361ee"/>
  <text x="719" y="45" font-family="Arial,sans-serif" font-size="10" fill="white" text-anchor="middle">ICH E2B(R3)</text>
  <!-- Signal metrics -->
  <rect x="24" y="88" width="152" height="80" rx="8" fill="rgba(255,255,255,0.04)" stroke="rgba(255,255,255,0.07)" stroke-width="1"/>
  <text x="40" y="110" font-family="Arial,sans-serif" font-size="9" fill="rgba(255,255,255,0.4)" letter-spacing="1">TOTAL ICSRs</text>
  <text x="40" y="142" font-family="Arial,sans-serif" font-size="28" font-weight="bold" fill="white">18,420</text>
  <text x="40" y="160" font-family="Arial,sans-serif" font-size="9" fill="rgba(255,255,255,0.35)">cases this quarter</text>

  <rect x="190" y="88" width="152" height="80" rx="8" fill="rgba(255,255,255,0.04)" stroke="rgba(255,255,255,0.07)" stroke-width="1"/>
  <text x="206" y="110" font-family="Arial,sans-serif" font-size="9" fill="rgba(255,255,255,0.4)" letter-spacing="1">SERIOUS AEs</text>
  <text x="206" y="142" font-family="Arial,sans-serif" font-size="28" font-weight="bold" fill="#ef4444">847</text>
  <text x="206" y="160" font-family="Arial,sans-serif" font-size="9" fill="#ef4444">▲ 12% vs prior Q</text>

  <rect x="356" y="88" width="152" height="80" rx="8" fill="rgba(255,255,255,0.04)" stroke="rgba(255,255,255,0.07)" stroke-width="1"/>
  <text x="372" y="110" font-family="Arial,sans-serif" font-size="9" fill="rgba(255,255,255,0.4)" letter-spacing="1">NEW SIGNALS</text>
  <text x="372" y="142" font-family="Arial,sans-serif" font-size="28" font-weight="bold" fill="#f59e0b">3</text>
  <text x="372" y="160" font-family="Arial,sans-serif" font-size="9" fill="#f59e0b">Under evaluation</text>

  <rect x="522" y="88" width="152" height="80" rx="8" fill="rgba(255,255,255,0.04)" stroke="rgba(255,255,255,0.07)" stroke-width="1"/>
  <text x="538" y="110" font-family="Arial,sans-serif" font-size="9" fill="rgba(255,255,255,0.4)" letter-spacing="1">15-DAY REPORTS</text>
  <text x="538" y="142" font-family="Arial,sans-serif" font-size="28" font-weight="bold" fill="#06d6a0">98.4%</text>
  <text x="538" y="160" font-family="Arial,sans-serif" font-size="9" fill="#06d6a0">On-time ✓</text>

  <rect x="688" y="88" width="88" height="80" rx="8" fill="rgba(67,97,238,0.12)" stroke="#4361ee" stroke-width="1"/>
  <text x="732" y="110" font-family="Arial,sans-serif" font-size="8" fill="rgba(255,255,255,0.4)" text-anchor="middle" letter-spacing="0.5">EMA</text>
  <text x="732" y="132" font-family="Arial,sans-serif" font-size="16" font-weight="bold" fill="#4361ee" text-anchor="middle">✓</text>
  <text x="732" y="152" font-family="Arial,sans-serif" font-size="8" fill="#06d6a0" text-anchor="middle">Compliant</text>
  <text x="732" y="164" font-family="Arial,sans-serif" font-size="7" fill="rgba(255,255,255,0.3)" text-anchor="middle">FDA / EMA</text>
  <!-- World map (stylized) -->
  <rect x="24" y="188" width="480" height="220" rx="8" fill="rgba(255,255,255,0.03)"/>
  <text x="44" y="214" font-family="Arial,sans-serif" font-size="12" font-weight="bold" fill="rgba(255,255,255,0.85)">Global Signal Distribution</text>
  <!-- Simplified world map regions using rectangles/paths -->
  <!-- North America -->
  <ellipse cx="160" cy="290" rx="60" ry="40" fill="rgba(67,97,238,0.12)" stroke="rgba(67,97,238,0.3)" stroke-width="1"/>
  <text x="160" y="288" font-family="Arial,sans-serif" font-size="8" fill="rgba(255,255,255,0.4)" text-anchor="middle">N. America</text>
  <text x="160" y="300" font-family="Arial,sans-serif" font-size="10" font-weight="bold" fill="#4361ee" text-anchor="middle">6,420</text>
  <!-- Europe -->
  <ellipse cx="310" cy="265" rx="50" ry="35" fill="rgba(239,68,68,0.15)" stroke="rgba(239,68,68,0.4)" stroke-width="1"/>
  <text x="310" y="263" font-family="Arial,sans-serif" font-size="8" fill="rgba(255,255,255,0.4)" text-anchor="middle">Europe</text>
  <text x="310" y="275" font-family="Arial,sans-serif" font-size="10" font-weight="bold" fill="#ef4444" text-anchor="middle">5,840</text>
  <!-- Asia -->
  <ellipse cx="430" cy="280" rx="45" ry="32" fill="rgba(245,158,11,0.12)" stroke="rgba(245,158,11,0.3)" stroke-width="1"/>
  <text x="430" y="278" font-family="Arial,sans-serif" font-size="8" fill="rgba(255,255,255,0.4)" text-anchor="middle">Asia-Pacific</text>
  <text x="430" y="290" font-family="Arial,sans-serif" font-size="10" font-weight="bold" fill="#f59e0b" text-anchor="middle">4,210</text>
  <!-- Rest of world -->
  <ellipse cx="220" cy="350" rx="35" ry="25" fill="rgba(6,214,160,0.1)" stroke="rgba(6,214,160,0.25)" stroke-width="1"/>
  <text x="220" y="354" font-family="Arial,sans-serif" font-size="8" fill="#06d6a0" text-anchor="middle">LatAm</text>
  <!-- Signal dots -->
  <circle cx="140" cy="270" r="6" fill="rgba(239,68,68,0.8)"/>
  <circle cx="300" cy="255" r="8" fill="rgba(239,68,68,0.9)"/>
  <circle cx="425" cy="268" r="5" fill="rgba(245,158,11,0.8)"/>
  <circle cx="175" cy="305" r="4" fill="rgba(67,97,238,0.7)"/>
  <circle cx="340" cy="280" r="4" fill="rgba(245,158,11,0.7)"/>
  <!-- Signal pulses (decorative rings) -->
  <circle cx="300" cy="255" r="14" fill="none" stroke="rgba(239,68,68,0.3)" stroke-width="1.5"/>
  <circle cx="300" cy="255" r="22" fill="none" stroke="rgba(239,68,68,0.15)" stroke-width="1"/>
  <!-- Right panel: Signal details -->
  <rect x="518" y="188" width="258" height="220" rx="8" fill="rgba(255,255,255,0.04)"/>
  <text x="538" y="214" font-family="Arial,sans-serif" font-size="12" font-weight="bold" fill="rgba(255,255,255,0.85)">Signal Alerts</text>
  <!-- Signal 1 -->
  <rect x="530" y="222" width="234" height="58" rx="6" fill="rgba(239,68,68,0.08)" stroke="rgba(239,68,68,0.35)" stroke-width="1"/>
  <rect x="530" y="222" width="4" height="58" rx="2" fill="#ef4444"/>
  <text x="542" y="240" font-family="Arial,sans-serif" font-size="10" font-weight="bold" fill="#ef4444">SIGNAL-001: Hepatotoxicity</text>
  <text x="542" y="254" font-family="Arial,sans-serif" font-size="9" fill="rgba(255,255,255,0.55)">Drug: Compound-X47</text>
  <text x="542" y="268" font-family="Arial,sans-serif" font-size="9" fill="rgba(255,255,255,0.4)">PRR: 4.2 | ROR: 3.8 | Cases: 24</text>
  <!-- Signal 2 -->
  <rect x="530" y="288" width="234" height="56" rx="6" fill="rgba(245,158,11,0.08)" stroke="rgba(245,158,11,0.3)" stroke-width="1"/>
  <rect x="530" y="288" width="4" height="56" rx="2" fill="#f59e0b"/>
  <text x="542" y="306" font-family="Arial,sans-serif" font-size="10" font-weight="bold" fill="#f59e0b">SIGNAL-002: Cardiotoxicity</text>
  <text x="542" y="320" font-family="Arial,sans-serif" font-size="9" fill="rgba(255,255,255,0.55)">Drug: Compound-X47</text>
  <text x="542" y="334" font-family="Arial,sans-serif" font-size="9" fill="rgba(255,255,255,0.4)">PRR: 2.8 | ROR: 2.5 | Cases: 12</text>
  <!-- Signal 3 -->
  <rect x="530" y="352" width="234" height="44" rx="6" fill="rgba(245,158,11,0.06)" stroke="rgba(245,158,11,0.2)" stroke-width="1"/>
  <rect x="530" y="352" width="4" height="44" rx="2" fill="#f59e0b"/>
  <text x="542" y="370" font-family="Arial,sans-serif" font-size="10" font-weight="bold" fill="#f59e0b">SIGNAL-003: Renal — Low PRR</text>
  <text x="542" y="386" font-family="Arial,sans-serif" font-size="9" fill="rgba(255,255,255,0.4)">Monitoring — PRR: 1.9</text>
  <!-- Timeline/trend chart at bottom -->
  <rect x="24" y="426" width="752" height="90" rx="8" fill="rgba(255,255,255,0.04)"/>
  <text x="44" y="452" font-family="Arial,sans-serif" font-size="12" font-weight="bold" fill="rgba(255,255,255,0.85)">ICSR Intake Trend — Last 6 Months</text>
  <!-- Bar chart -->
  <rect x="80" y="464" width="40" height="30" rx="2" fill="rgba(67,97,238,0.5)"/>
  <rect x="170" y="458" width="40" height="36" rx="2" fill="rgba(67,97,238,0.55)"/>
  <rect x="260" y="452" width="40" height="42" rx="2" fill="rgba(67,97,238,0.65)"/>
  <rect x="350" y="456" width="40" height="38" rx="2" fill="rgba(67,97,238,0.6)"/>
  <rect x="440" y="447" width="40" height="47" rx="2" fill="rgba(239,68,68,0.6)"/>
  <rect x="530" y="442" width="40" height="52" rx="2" fill="rgba(239,68,68,0.7)"/>
  <text x="100" y="502" font-family="Arial,sans-serif" font-size="8" fill="rgba(255,255,255,0.3)" text-anchor="middle">Oct</text>
  <text x="190" y="502" font-family="Arial,sans-serif" font-size="8" fill="rgba(255,255,255,0.3)" text-anchor="middle">Nov</text>
  <text x="280" y="502" font-family="Arial,sans-serif" font-size="8" fill="rgba(255,255,255,0.3)" text-anchor="middle">Dec</text>
  <text x="370" y="502" font-family="Arial,sans-serif" font-size="8" fill="rgba(255,255,255,0.3)" text-anchor="middle">Jan</text>
  <text x="460" y="502" font-family="Arial,sans-serif" font-size="8" fill="rgba(255,255,255,0.3)" text-anchor="middle">Feb</text>
  <text x="550" y="502" font-family="Arial,sans-serif" font-size="8" fill="rgba(255,255,255,0.3)" text-anchor="middle">Mar</text>
  <text x="680" y="475" font-family="Arial,sans-serif" font-size="9" fill="rgba(255,255,255,0.35)">EMA GVP Module IX</text>
  <text x="680" y="490" font-family="Arial,sans-serif" font-size="9" fill="#06d6a0">Compliant ✓</text>
</svg>
